# xmcd
#
# Track frame offsets:
#	150
#	17303
#	34654
#	52000
#	69111
#	84643
#	108102
#	119030
#	137886
#	152208
#	172077
#	193270
#	216826
#
# Disc length: 3173 seconds
#
# Revision: 0
# Processed by: cddbd v1.5.1PL2 Copyright (c) Steve Scherf et al.
# Submitted via: dBpowerAMP V4.0
#
DISCID=b60c630d
DTITLE=Betsy Pecanins - Blues en el alma
DYEAR=1900
DGENRE=Blues
TTITLE0=Fuego en el alma
TTITLE1=Haapy Home
TTITLE2=Orale pues, Gutierrez
TTITLE3=Im Tore Down
TTITLE4=No me movere de aqui
TTITLE5=Tonada d ela Luna
TTITLE6=Am I Wrong
TTITLE7=Soy mi voz
TTITLE8=One Way Out
TTITLE9=Love In Vain
TTITLE10=Te puedes ir
TTITLE11=Cancion Mixteca
TTITLE12=Orale pues, Guitierrez
EXTD=
EXTT0=
EXTT1=
EXTT2=
EXTT3=
EXTT4=
EXTT5=
EXTT6=
EXTT7=
EXTT8=
EXTT9=
EXTT10=
EXTT11=
EXTT12=
PLAYORDER=
